<svg width="24" height="24" fill="none" xmlns="http://www.w3.org/2000/svg"><g clip-path="url(#a)"><path d="M20.25 15h-1.5a.75.75 0 0 0-.75.75V21H3V6h6.75a.75.75 0 0 0 .75-.75v-1.5A.75.75 0 0 0 9.75 3h-7.5A2.25 2.25 0 0 0 0 5.25v16.5A2.25 2.25 0 0 0 2.25 24h16.5A2.25 2.25 0 0 0 21 21.75v-6a.75.75 0 0 0-.75-.75Zm2.625-15h-6c-1.002 0-1.502 1.215-.797 1.922l1.675 1.675-11.425 11.42a1.127 1.127 0 0 0 0 1.594l1.063 1.06a1.125 1.125 0 0 0 1.594 0L20.404 6.25l1.674 1.673c.703.703 1.922.21 1.922-.797v-6A1.125 1.125 0 0 0 22.875 0Z" fill="#221ED6"/></g><defs><clipPath id="a"><path fill="#fff" d="M0 0h24v24H0z"/></clipPath></defs></svg>