<?xml version="1.0" standalone="no"?>
<svg version="1.0" xmlns="http://www.w3.org/2000/svg"
 width="520.000000pt" height="520.000000pt" viewBox="0 0 520.000000 520.000000"
 preserveAspectRatio="xMidYMid meet">
<g transform="translate(0.000000,520.000000) scale(0.100000,-0.100000)"
fill="#000000" stroke="none">
<path d="M2460 4547 c-3 -3 -39 -8 -80 -11 -108 -10 -113 -11 -250 -45 -789
-198 -1350 -829 -1464 -1646 -13 -94 -15 -420 -3 -470 2 -11 8 -47 12 -79 9
-86 57 -266 100 -381 217 -578 704 -1027 1290 -1189 209 -57 314 -71 540 -71
201 1 269 8 450 50 160 37 299 89 455 172 89 46 284 172 300 192 3 4 19 17 35
30 63 48 169 155 270 271 151 175 330 537 380 765 42 198 50 272 50 475 -1
175 -6 232 -35 379 -87 433 -332 840 -675 1120 -250 204 -586 359 -890 410
-33 5 -76 13 -95 16 -43 7 -384 17 -390 12z"/>
</g>
</svg>
